HIERARCHY
ROOT Hips
{
	OFFSET 0.000000 0.000000 0.000000
	CHANNELS 6 Xposition Yposition Zposition Xrotation Yrotation Zrotation
	JOINT Chest
	{
		OFFSET 0.000000 0.009282 11.569106
		CHANNELS 6 Xposition Yposition Zposition Xrotation Yrotation Zrotation
		JOINT Chest2
		{
			OFFSET 0.000000 -0.016863 9.269641
			CHANNELS 6 Xposition Yposition Zposition Xrotation Yrotation Zrotation
			JOINT Chest3
			{
				OFFSET 0.000000 0.000000 8.374491
				CHANNELS 6 Xposition Yposition Zposition Xrotation Yrotation Zrotation
				JOINT Chest4
				{
					OFFSET 0.000000 0.000000 8.374493
					CHANNELS 6 Xposition Yposition Zposition Xrotation Yrotation Zrotation
					JOINT Neck
					{
						OFFSET 0.000000 -0.000001 12.152554
						CHANNELS 6 Xposition Yposition Zposition Xrotation Yrotation Zrotation
						JOINT Head
						{
							OFFSET 0.000000 -0.040100 7.802319
							CHANNELS 6 Xposition Yposition Zposition Xrotation Yrotation Zrotation
							End Site
							{
								OFFSET 0.000000 -0.020946 14.853096
							}
						}
					}
					JOINT RightCollar
					{
						OFFSET -2.894404 0.000000 6.791374
						CHANNELS 6 Xposition Yposition Zposition Xrotation Yrotation Zrotation
						JOINT RightShoulder
						{
							OFFSET -13.574684 0.000000 0.000000
							CHANNELS 6 Xposition Yposition Zposition Xrotation Yrotation Zrotation
							JOINT RightElbow
							{
								OFFSET -23.923903 0.000000 0.000000
								CHANNELS 6 Xposition Yposition Zposition Xrotation Yrotation Zrotation
								JOINT RightWrist
								{
									OFFSET -19.846718 -0.012765 0.000000
									CHANNELS 6 Xposition Yposition Zposition Xrotation Yrotation Zrotation
									End Site
									{
										OFFSET -14.973145 0.000000 0.000000
									}
								}
							}
						}
					}
					JOINT LeftCollar
					{
						OFFSET 2.894404 0.000000 6.791374
						CHANNELS 6 Xposition Yposition Zposition Xrotation Yrotation Zrotation
						JOINT LeftShoulder
						{
							OFFSET 13.574684 0.000000 0.000000
							CHANNELS 6 Xposition Yposition Zposition Xrotation Yrotation Zrotation
							JOINT LeftElbow
							{
								OFFSET 23.923903 0.000000 0.000000
								CHANNELS 6 Xposition Yposition Zposition Xrotation Yrotation Zrotation
								JOINT LeftWrist
								{
									OFFSET 19.846718 -0.012765 0.000000
									CHANNELS 6 Xposition Yposition Zposition Xrotation Yrotation Zrotation
									End Site
									{
										OFFSET 14.973145 0.000000 0.000000
									}
								}
							}
						}
					}
				}
			}
		}
	}
	JOINT RightHip
	{
		OFFSET -9.469263 -0.004642 0.045487
		CHANNELS 6 Xposition Yposition Zposition Xrotation Yrotation Zrotation
		JOINT RightKnee
		{
			OFFSET 0.000000 -0.002666 -40.478676
			CHANNELS 6 Xposition Yposition Zposition Xrotation Yrotation Zrotation
			JOINT RightAnkle
			{
				OFFSET 0.000000 -0.049110 -35.224068
				CHANNELS 6 Xposition Yposition Zposition Xrotation Yrotation Zrotation
				JOINT RightToe
				{
					OFFSET 0.000000 -12.539530 -6.151390
					CHANNELS 6 Xposition Yposition Zposition Xrotation Yrotation Zrotation
					End Site
					{
						OFFSET 0.000000 -5.044995 -1.291870
					}
				}
			}
		}
	}
	JOINT LeftHip
	{
		OFFSET 9.469263 -0.004642 0.045487
		CHANNELS 6 Xposition Yposition Zposition Xrotation Yrotation Zrotation
		JOINT LeftKnee
		{
			OFFSET 0.000000 -0.002666 -40.478676
			CHANNELS 6 Xposition Yposition Zposition Xrotation Yrotation Zrotation
			JOINT LeftAnkle
			{
				OFFSET 0.000000 -0.049110 -35.224068
				CHANNELS 6 Xposition Yposition Zposition Xrotation Yrotation Zrotation
				JOINT LeftToe
				{
					OFFSET 0.000000 -12.539530 -6.151390
					CHANNELS 6 Xposition Yposition Zposition Xrotation Yrotation Zrotation
					End Site
					{
						OFFSET 0.000000 -5.044995 -1.291870
					}
				}
			}
		}
	}
}
MOTION
Frames: 8
Frame Time: 0.016667
-10.570705 -7.959065 83.142380 2.009282 4.447041 -111.410692 -0.000000 0.009283 11.569104 1.813271 -0.008964 0.777471 -0.000001 -0.016864 9.269652 0.806452 -0.004354 0.321427 -0.000000 0.000001 8.374487 0.806453 -0.004354 0.321427 0.000001 0.000001 8.374496 0.604838 -0.003689 0.241064 0.000000 -0.000003 12.152551 16.859856 -0.419736 -1.370659 0.000000 -0.040101 7.802305 -4.871023 -0.285556 -2.645343 -2.894403 0.000000 6.791363 -23.776551 -5.692749 -3.056488 -13.574682 0.000003 -0.000012 -57.218475 -19.714132 7.987860 -23.923903 -0.000003 -0.000001 -40.226208 -45.703087 42.252817 -19.846731 -0.012774 0.000001 -54.166460 51.123652 36.710590 2.894405 -0.000000 6.791375 -16.535203 5.440377 -0.654337 13.574686 -0.000001 0.000001 -56.978060 16.319074 -7.649406 23.923901 0.000004 0.000003 -41.423731 34.450989 -37.008690 19.846722 -0.012756 0.000008 -46.628824 -41.983117 -17.341604 -9.469263 -0.004639 0.045481 5.711221 0.711542 -1.983871 0.000352 -0.002692 -40.478561 2.410126 -0.970137 -7.550387 -0.000119 -0.049117 -35.224174 -2.457439 -0.337216 2.525711 0.000001 -12.539532 -6.151386 0.002576 -0.002462 0.006859 9.469262 -0.004640 0.045481 7.002852 0.728797 0.519892 -0.000113 -0.002667 -40.478645 0.572685 -1.025255 2.406627 0.000036 -0.049116 -35.224201 -2.871764 1.621474 -0.778645 -0.000001 -12.539532 -6.151376 0.033786 0.009861 -0.003718 
-10.548017 -7.945236 83.141289 2.004500 4.461535 -111.383276 -0.000000 0.009283 11.569104 1.795454 0.008722 0.774298 -0.000000 -0.016864 9.269651 0.798311 0.003321 0.321038 -0.000000 0.000001 8.374484 0.798311 0.003321 0.321041 -0.000001 0.000001 8.374494 0.598736 0.002071 0.240786 -0.000001 -0.000001 12.152558 16.892516 -0.448576 -1.380412 -0.000000 -0.040098 7.802314 -4.810863 -0.335359 -2.673115 -2.894404 0.000001 6.791366 -23.849574 -5.717306 -3.051065 -13.574682 0.000001 -0.000008 -57.368480 -19.596217 7.920337 -23.923899 0.000004 0.000000 -39.482411 -46.189564 43.207357 -19.846718 -0.012761 0.000005 -54.290466 51.060548 36.874894 2.894403 -0.000000 6.791374 -16.654752 5.436247 -0.650521 13.574683 0.000004 0.000001 -57.080789 16.379967 -7.611119 23.923903 0.000001 0.000001 -41.225536 34.721410 -37.519322 19.846714 -0.012757 -0.000001 -46.648037 -41.855707 -17.291940 -9.469263 -0.004640 0.045488 5.720633 0.705477 -2.030402 0.000352 -0.002691 -40.478558 2.399186 -0.977426 -7.550265 -0.000119 -0.049117 -35.224174 -2.460400 -0.326685 2.527935 -0.000001 -12.539532 -6.151378 0.013210 0.006069 0.005659 9.469263 -0.004640 0.045486 6.996942 0.734067 0.459022 -0.000115 -0.002669 -40.478661 0.580567 -1.052630 2.412516 0.000032 -0.049120 -35.224209 -2.865387 1.626782 -0.756204 0.000000 -12.539532 -6.151381 0.036022 0.025424 -0.002936 
-10.522965 -7.929027 83.140144 2.000431 4.472702 -111.354302 -0.000000 0.009282 11.569103 1.775887 0.018459 0.762909 0.000000 -0.016863 9.269658 0.789362 0.008112 0.316793 0.000001 0.000000 8.374487 0.789362 0.008112 0.316792 -0.000001 -0.000000 8.374495 0.592025 0.005674 0.237603 0.000001 -0.000001 12.152550 16.929221 -0.458420 -1.383619 -0.000001 -0.040096 7.802321 -4.742871 -0.352918 -2.682280 -2.894403 0.000001 6.791368 -23.965460 -5.736970 -3.036358 -13.574686 -0.000006 0.000015 -57.441843 -19.530217 7.916269 -23.923899 0.000005 -0.000004 -38.903064 -46.571481 44.053962 -19.846722 -0.012757 0.000004 -54.348946 50.943140 36.980079 2.894405 0.000001 6.791367 -16.810590 5.421992 -0.600947 13.574683 0.000005 0.000004 -57.073334 16.443598 -7.599520 23.923903 -0.000008 0.000000 -41.131963 34.970425 -37.934403 19.846725 -0.012760 0.000002 -46.750469 -41.806584 -17.311466 -9.469264 -0.004642 0.045484 5.735240 0.694381 -2.074123 0.000352 -0.002692 -40.478554 2.369251 -0.985093 -7.548198 -0.000118 -0.049118 -35.224174 -2.453580 -0.312611 2.514315 -0.000001 -12.539530 -6.151386 0.022170 0.013592 0.006337 9.469263 -0.004643 0.045480 6.988734 0.733460 0.391712 -0.000115 -0.002670 -40.478649 0.585150 -1.076463 2.423425 0.000037 -0.049118 -35.224194 -2.856650 1.630739 -0.731062 0.000000 -12.539531 -6.151380 0.038158 0.039061 -0.002071 
-10.495915 -7.910312 83.139328 1.992770 4.480323 -111.328375 -0.000000 0.009280 11.569107 1.750068 0.023862 0.745843 0.000000 -0.016863 9.269641 0.777684 0.011368 0.310381 -0.000001 0.000000 8.374495 0.777684 0.011368 0.310380 -0.000000 0.000001 8.374496 0.583269 0.008131 0.232797 -0.000001 -0.000003 12.152563 16.975993 -0.449634 -1.380141 -0.000001 -0.040095 7.802311 -4.655878 -0.339049 -2.672717 -2.894406 0.000000 6.791375 -24.102086 -5.764135 -2.999520 -13.574683 -0.000003 -0.000005 -57.517870 -19.476821 7.919992 -23.923901 0.000002 -0.000001 -38.343876 -46.800634 44.839369 -19.846725 -0.012766 0.000007 -54.279141 50.786616 36.956084 2.894402 -0.000001 6.791378 -16.898463 5.401615 -0.572912 13.574684 -0.000002 -0.000000 -57.057495 16.471542 -7.577903 23.923903 0.000007 0.000000 -41.086873 35.134869 -38.279160 19.846729 -0.012762 -0.000002 -46.779535 -41.778590 -17.351845 -9.469264 -0.004642 0.045485 5.743851 0.683020 -2.112675 0.000352 -0.002691 -40.478558 2.340272 -0.989623 -7.549725 -0.000118 -0.049119 -35.224174 -2.446753 -0.299465 2.514502 -0.000001 -12.539534 -6.151383 0.029737 0.019804 0.007623 9.469263 -0.004643 0.045481 6.976930 0.733451 0.333548 -0.000114 -0.002668 -40.478634 0.586470 -1.101729 2.424416 0.000033 -0.049115 -35.224190 -2.844198 1.637146 -0.706649 0.000000 -12.539533 -6.151384 0.038358 0.050361 -0.002057 
-10.467774 -7.890506 83.138458 1.982604 4.485419 -111.304305 -0.000001 0.009284 11.569106 1.730912 0.032600 0.725982 -0.000000 -0.016863 9.269648 0.768810 0.016028 0.302432 0.000000 0.000000 8.374484 0.768810 0.016028 0.302429 0.000001 0.000000 8.374496 0.576616 0.011641 0.226842 -0.000000 -0.000003 12.152557 17.023975 -0.433446 -1.369045 -0.000000 -0.040096 7.802311 -4.566557 -0.314346 -2.646700 -2.894405 -0.000001 6.791371 -24.256590 -5.796719 -2.949158 -13.574681 0.000003 -0.000003 -57.611184 -19.393602 7.908750 -23.923903 -0.000006 -0.000000 -37.823245 -46.914052 45.511664 -19.846706 -0.012767 0.000010 -54.242166 50.623593 37.025079 2.894403 -0.000002 6.791374 -16.950416 5.370188 -0.570958 13.574684 0.000006 -0.000004 -57.059523 16.458097 -7.534445 23.923901 0.000007 0.000001 -41.003002 35.169508 -38.579763 19.846725 -0.012784 0.000001 -46.700712 -41.722801 -17.338695 -9.469264 -0.004640 0.045480 5.749219 0.670314 -2.149186 0.000352 -0.002691 -40.478561 2.309406 -0.987366 -7.553508 -0.000118 -0.049117 -35.224171 -2.437505 -0.288970 2.532661 0.000000 -12.539530 -6.151384 0.035969 0.024067 0.007161 9.469262 -0.004640 0.045484 6.962330 0.731005 0.284451 -0.000110 -0.002669 -40.478645 0.586204 -1.119864 2.405122 0.000032 -0.049118 -35.224201 -2.832037 1.638918 -0.667898 -0.000001 -12.539530 -6.151383 0.038860 0.060075 -0.001706 
-10.438589 -7.869974 83.137169 1.972719 4.491628 -111.285078 -0.000000 0.009281 11.569103 1.717545 0.042550 0.706764 -0.000001 -0.016863 9.269637 0.762548 0.021273 0.295078 0.000001 0.000000 8.374493 0.762547 0.021273 0.295077 0.000001 0.000000 8.374494 0.571921 0.015587 0.221333 -0.000002 -0.000001 12.152558 17.071277 -0.413157 -1.353810 -0.000000 -0.040092 7.802312 -4.478485 -0.283574 -2.611750 -2.894406 0.000002 6.791376 -24.397830 -5.827181 -2.903866 -13.574683 -0.000002 0.000004 -57.709225 -19.306904 7.960072 -23.923901 -0.000005 0.000005 -37.408939 -46.866856 46.030158 -19.846712 -0.012761 -0.000002 -54.161805 50.453327 37.039054 2.894402 0.000000 6.791375 -17.036833 5.312278 -0.500325 13.574682 0.000004 -0.000008 -57.013331 16.492931 -7.522352 23.923897 -0.000016 -0.000005 -40.926856 35.125470 -38.792357 19.846714 -0.012756 0.000006 -46.529386 -41.678743 -17.281611 -9.469263 -0.004643 0.045487 5.753841 0.654685 -2.170588 0.000353 -0.002691 -40.478558 2.279823 -0.979212 -7.568517 -0.000120 -0.049118 -35.224186 -2.428752 -0.278700 2.559535 0.000000 -12.539531 -6.151380 0.042414 0.025558 0.006607 9.469262 -0.004643 0.045492 6.946959 0.729463 0.240399 -0.000113 -0.002667 -40.478661 0.589774 -1.140029 2.382996 0.000029 -0.049116 -35.224194 -2.822407 1.640905 -0.624087 0.000000 -12.539530 -6.151384 0.039531 0.069115 -0.001580 
-10.408458 -7.851040 83.135811 1.963880 4.499490 -111.274457 -0.000001 0.009281 11.569109 1.710030 0.053114 0.687803 0.000000 -0.016864 9.269650 0.759079 0.026205 0.287847 -0.000000 0.000001 8.374492 0.759079 0.026205 0.287846 -0.000001 0.000001 8.374497 0.569322 0.019296 0.215917 0.000000 -0.000002 12.152568 17.120204 -0.385922 -1.331239 0.000001 -0.040101 7.802299 -4.387369 -0.242683 -2.561023 -2.894405 0.000001 6.791377 -24.521445 -5.857524 -2.851861 -13.574683 0.000002 0.000011 -57.843574 -19.140338 8.047372 -23.923901 0.000001 0.000004 -37.131702 -46.796051 46.339125 -19.846724 -0.012770 0.000013 -54.095091 50.279854 37.075626 2.894404 -0.000002 6.791381 -17.156040 5.256570 -0.424734 13.574687 -0.000000 -0.000010 -56.923493 16.491026 -7.555939 23.923897 -0.000007 -0.000000 -40.952496 35.059166 -38.851011 19.846710 -0.012762 -0.000002 -46.440939 -41.616250 -17.214940 -9.469265 -0.004641 0.045484 5.753132 0.641676 -2.187967 0.000353 -0.002691 -40.478561 2.261116 -0.974676 -7.581448 -0.000121 -0.049117 -35.224182 -2.423499 -0.268009 2.580287 -0.000001 -12.539533 -6.151384 0.047910 0.027624 0.004852 9.469263 -0.004642 0.045479 6.933649 0.731381 0.198792 -0.000114 -0.002670 -40.478653 0.593079 -1.163905 2.365224 0.000028 -0.049117 -35.224194 -2.813309 1.643068 -0.579527 -0.000001 -12.539534 -6.151382 0.040415 0.076927 -0.001317 
-10.378216 -7.835122 83.134781 1.956501 4.515353 -111.268016 0.000000 0.009283 11.569111 1.708359 0.058616 0.672255 -0.000000 -0.016863 9.269636 0.758252 0.028766 0.282012 -0.000001 -0.000000 8.374486 0.758251 0.028766 0.282007 0.000001 -0.000001 8.374505 0.568701 0.021224 0.211540 0.000001 -0.000004 12.152561 17.171210 -0.344937 -1.308645 0.000001 -0.040096 7.802326 -4.292111 -0.176733 -2.505520 -2.894403 -0.000001 6.791376 -24.652367 -5.881907 -2.799666 -13.574683 -0.000000 0.000003 -57.939375 -18.957557 8.129745 -23.923904 0.000015 0.000001 -36.927005 -46.772995 46.561956 -19.846722 -0.012766 0.000004 -54.140642 50.058269 37.196510 2.894404 -0.000001 6.791377 -17.249037 5.234041 -0.392200 13.574684 0.000006 -0.000004 -56.853863 16.430401 -7.605717 23.923901 -0.000002 -0.000003 -41.092836 35.023571 -38.789249 19.846743 -0.012779 -0.000000 -46.383859 -41.547904 -17.111239 -9.469263 -0.004642 0.045493 5.758098 0.635051 -2.213846 0.000354 -0.002692 -40.478558 2.245284 -0.973820 -7.590172 -0.000122 -0.049116 -35.224174 -2.418186 -0.261413 2.602104 0.000000 -12.539531 -6.151385 0.052569 0.032301 0.002504 9.469263 -0.004642 0.045490 6.929682 0.736329 0.154149 -0.000109 -0.002668 -40.478642 0.592502 -1.185791 2.348672 0.000027 -0.049116 -35.224190 -2.801386 1.641069 -0.530910 -0.000002 -12.539534 -6.151380 0.040351 0.083832 -0.000757 
